<svg id="svg" version="1.1" xmlns="http://www.w3.org/2000/svg" xmlns:xlink="http://www.w3.org/1999/xlink" width="400" height="400" viewBox="0, 0, 400,400"><g id="svgg"><path id="path0" d="M27.800 21.200 C 27.664 21.420,26.933 21.600,26.176 21.600 C 25.419 21.600,24.800 21.780,24.800 22.000 C 24.800 22.220,24.525 22.400,24.189 22.400 C 23.532 22.400,20.519 25.300,19.700 26.722 C 19.094 27.774,19.007 34.800,19.600 34.800 C 19.820 34.800,20.000 35.079,20.000 35.419 C 20.000 36.173,23.019 39.230,24.400 39.874 C 26.478 40.842,28.198 40.952,43.291 41.084 L 58.782 41.218 59.271 42.109 C 59.540 42.599,59.775 43.485,59.792 44.078 C 59.809 44.671,59.953 45.286,60.111 45.445 C 60.270 45.603,60.400 46.413,60.400 47.243 C 60.400 48.073,60.580 48.864,60.800 49.000 C 61.020 49.136,61.200 49.856,61.200 50.600 C 61.200 51.344,61.380 52.064,61.600 52.200 C 61.820 52.336,62.000 53.146,62.000 54.000 C 62.000 54.854,62.180 55.664,62.400 55.800 C 62.620 55.936,62.800 56.667,62.800 57.424 C 62.800 58.181,62.980 58.800,63.200 58.800 C 63.420 58.800,63.600 59.520,63.600 60.400 C 63.600 61.280,63.780 62.000,64.000 62.000 C 64.220 62.000,64.400 62.709,64.400 63.576 C 64.400 64.443,64.580 65.264,64.800 65.400 C 65.020 65.536,65.200 66.346,65.200 67.200 C 65.200 68.054,65.380 68.864,65.600 69.000 C 65.820 69.136,66.000 69.856,66.000 70.600 C 66.000 71.344,66.180 72.064,66.400 72.200 C 66.620 72.336,66.800 73.067,66.800 73.824 C 66.800 74.581,66.980 75.200,67.200 75.200 C 67.420 75.200,67.600 75.920,67.600 76.800 C 67.600 77.680,67.780 78.400,68.000 78.400 C 68.220 78.400,68.400 79.120,68.400 80.000 L 68.400 81.600 40.424 81.600 C 22.204 81.600,12.361 81.740,12.200 82.000 C 12.064 82.220,11.603 82.400,11.176 82.400 C 10.749 82.400,10.400 82.580,10.400 82.800 C 10.400 83.020,10.174 83.200,9.897 83.200 C 9.225 83.200,6.800 85.873,6.800 86.613 C 6.800 86.936,6.620 87.200,6.400 87.200 C 6.180 87.200,6.000 87.560,6.000 88.000 C 6.000 88.440,5.820 88.800,5.600 88.800 C 5.374 88.800,5.200 89.933,5.200 91.400 C 5.200 92.867,5.374 94.000,5.600 94.000 C 5.820 94.000,6.000 94.540,6.000 95.200 C 6.000 95.860,6.180 96.400,6.400 96.400 C 6.620 96.400,6.800 96.625,6.800 96.900 C 6.801 97.563,8.571 99.600,9.147 99.600 C 9.396 99.600,9.601 99.735,9.603 99.900 C 9.616 101.166,11.376 101.200,77.256 101.200 C 120.489 101.200,142.837 101.336,143.000 101.600 C 143.136 101.820,143.777 102.000,144.424 102.000 C 145.071 102.000,145.600 102.180,145.600 102.400 C 145.600 102.620,145.876 102.800,146.213 102.800 C 147.009 102.800,149.600 105.391,149.600 106.187 C 149.600 106.524,149.780 106.800,150.000 106.800 C 150.231 106.800,150.400 108.067,150.400 109.800 C 150.400 111.533,150.231 112.800,150.000 112.800 C 149.780 112.800,149.600 113.076,149.600 113.413 C 149.600 114.209,147.009 116.800,146.213 116.800 C 145.876 116.800,145.600 116.980,145.600 117.200 C 145.600 117.420,145.150 117.600,144.600 117.600 C 144.050 117.600,143.600 117.780,143.600 118.000 C 143.600 118.263,132.319 118.400,110.556 118.400 L 77.512 118.400 77.772 119.900 C 77.914 120.725,78.133 122.075,78.257 122.900 C 78.382 123.725,78.645 124.400,78.842 124.400 C 79.039 124.400,79.200 125.120,79.200 126.000 C 79.200 126.880,79.380 127.600,79.600 127.600 C 79.820 127.600,80.000 128.320,80.000 129.200 L 80.000 130.800 74.024 130.800 C 70.471 130.800,67.947 130.962,67.800 131.200 C 67.664 131.420,67.115 131.600,66.581 131.600 C 65.611 131.600,64.654 132.218,63.050 133.881 C 61.561 135.424,61.200 135.951,61.200 136.583 C 61.200 136.922,61.020 137.200,60.800 137.200 C 60.561 137.200,60.400 138.733,60.400 141.000 C 60.400 143.267,60.561 144.800,60.800 144.800 C 61.020 144.800,61.200 145.075,61.200 145.411 C 61.200 146.204,64.596 149.600,65.389 149.600 C 65.725 149.600,66.000 149.780,66.000 150.000 C 66.000 150.264,80.459 150.400,108.576 150.400 C 136.529 150.400,151.238 150.537,151.400 150.800 C 151.536 151.020,152.447 151.200,153.424 151.200 C 154.401 151.200,155.200 151.368,155.200 151.573 C 155.200 151.778,155.539 152.054,155.952 152.185 C 160.884 153.750,160.765 166.000,155.818 166.000 C 155.478 166.000,155.200 166.180,155.200 166.400 C 155.200 166.620,154.851 166.800,154.424 166.800 C 153.997 166.800,153.536 166.980,153.400 167.200 C 153.239 167.461,142.129 167.600,121.376 167.600 L 89.600 167.600 89.600 168.976 C 89.600 169.733,89.780 170.464,90.000 170.600 C 90.220 170.736,90.400 171.456,90.400 172.200 C 90.400 172.944,90.556 173.649,90.747 173.767 C 90.938 173.885,91.202 174.751,91.334 175.691 C 91.466 176.631,91.736 178.165,91.933 179.100 L 92.293 180.800 54.946 180.800 C 30.315 180.800,17.600 180.936,17.600 181.200 C 17.600 181.420,17.328 181.600,16.995 181.600 C 15.633 181.600,12.000 184.645,12.000 185.787 C 12.000 186.124,11.820 186.400,11.600 186.400 C 11.380 186.400,11.200 187.018,11.200 187.774 C 11.200 188.530,11.027 189.603,10.815 190.160 C 10.569 190.808,10.569 191.257,10.815 191.409 C 11.027 191.540,11.200 192.357,11.200 193.224 C 11.200 194.091,11.380 194.800,11.600 194.800 C 11.820 194.800,12.000 195.075,12.000 195.411 C 12.000 196.191,15.390 199.600,16.166 199.600 C 16.489 199.600,16.864 199.780,17.000 200.000 C 17.163 200.264,42.471 200.400,91.624 200.400 C 140.941 200.400,166.000 200.535,166.000 200.800 C 166.000 201.020,166.272 201.200,166.605 201.200 C 168.521 201.200,172.400 205.190,172.400 207.161 C 172.400 207.586,172.625 208.015,172.900 208.114 C 173.300 208.259,173.300 208.465,172.900 209.142 C 172.625 209.608,172.400 210.442,172.400 210.995 C 172.400 211.548,172.220 212.000,172.000 212.000 C 171.780 212.000,171.600 212.276,171.600 212.613 C 171.600 212.951,170.976 213.851,170.213 214.613 C 169.451 215.376,168.551 216.000,168.213 216.000 C 167.876 216.000,167.600 216.180,167.600 216.400 C 167.600 216.620,166.891 216.800,166.024 216.800 C 165.157 216.800,164.336 216.980,164.200 217.200 C 164.039 217.461,153.063 217.600,132.576 217.600 L 101.200 217.600 101.200 218.576 C 101.200 219.113,101.380 219.664,101.600 219.800 C 101.820 219.936,102.000 220.656,102.000 221.400 C 102.000 222.144,102.180 222.864,102.400 223.000 C 102.620 223.136,102.800 223.867,102.800 224.624 C 102.800 225.381,102.980 226.000,103.200 226.000 C 103.420 226.000,103.600 226.799,103.600 227.776 C 103.600 228.753,103.780 229.664,104.000 229.800 C 105.125 230.495,104.388 231.600,102.800 231.600 C 101.920 231.600,101.200 231.780,101.200 232.000 C 101.200 232.220,100.480 232.400,99.600 232.400 C 98.720 232.400,98.000 232.580,98.000 232.800 C 98.000 233.020,97.550 233.200,97.000 233.200 C 96.450 233.200,96.000 233.380,96.000 233.600 C 96.000 233.820,95.747 234.000,95.438 234.000 C 94.644 234.000,91.526 235.664,90.753 236.500 C 90.397 236.885,89.852 237.200,89.541 237.200 C 89.231 237.200,88.717 237.560,88.400 238.000 C 88.083 238.440,87.584 238.800,87.292 238.800 C 86.352 238.800,79.223 246.441,79.207 247.467 C 79.203 247.723,79.065 247.993,78.900 248.067 C 78.375 248.300,76.804 251.471,77.078 251.745 C 77.223 251.890,77.027 252.238,76.643 252.519 C 76.258 252.801,75.994 253.204,76.057 253.415 C 76.119 253.627,75.937 254.220,75.653 254.734 C 75.368 255.248,75.035 256.643,74.912 257.834 C 74.789 259.025,74.533 260.000,74.344 260.000 C 73.895 260.000,73.894 273.487,74.343 273.765 C 74.531 273.881,74.787 274.956,74.910 276.154 C 75.034 277.352,75.367 278.752,75.651 279.266 C 75.935 279.780,76.122 280.427,76.065 280.705 C 76.009 280.983,76.246 281.320,76.593 281.453 C 76.996 281.607,77.138 281.966,76.985 282.447 C 76.853 282.863,76.937 283.200,77.173 283.200 C 77.408 283.200,77.600 283.560,77.600 284.000 C 77.600 284.440,77.780 284.800,78.000 284.800 C 78.220 284.800,78.400 285.036,78.400 285.325 C 78.400 285.613,78.760 286.236,79.200 286.708 C 79.640 287.180,80.000 287.712,80.000 287.889 C 80.000 288.279,84.637 293.200,85.004 293.200 C 85.147 293.200,85.954 293.920,86.800 294.800 C 87.646 295.680,88.582 296.400,88.880 296.400 C 89.179 296.400,89.683 296.760,90.000 297.200 C 90.317 297.640,90.897 298.000,91.288 298.000 C 91.680 298.000,92.000 298.146,92.000 298.325 C 92.000 298.504,92.630 298.898,93.400 299.200 C 94.170 299.502,94.800 299.896,94.800 300.075 C 94.800 300.254,95.239 300.400,95.776 300.400 C 96.313 300.400,96.864 300.580,97.000 300.800 C 97.136 301.020,97.777 301.200,98.424 301.200 C 99.071 301.200,99.600 301.380,99.600 301.600 C 99.600 301.820,100.320 302.000,101.200 302.000 C 102.080 302.000,102.800 302.180,102.800 302.400 C 102.800 302.629,104.000 302.800,105.600 302.800 C 107.140 302.800,108.400 302.903,108.400 303.029 C 108.400 303.466,107.254 304.400,106.717 304.400 C 106.420 304.400,105.917 304.760,105.600 305.200 C 105.283 305.640,104.796 306.000,104.518 306.000 C 103.678 306.000,97.204 312.105,95.611 314.400 C 95.076 315.170,94.527 315.890,94.390 316.000 C 94.161 316.184,93.888 316.791,93.579 317.800 C 93.512 318.020,93.218 318.440,92.925 318.732 C 92.632 319.025,92.495 319.430,92.620 319.632 C 92.745 319.835,92.702 320.001,92.524 320.003 C 92.146 320.007,91.200 321.920,91.200 322.680 C 91.200 322.966,91.020 323.200,90.800 323.200 C 90.580 323.200,90.400 323.740,90.400 324.400 C 90.400 325.060,90.220 325.600,90.000 325.600 C 89.780 325.600,89.600 326.230,89.600 327.000 C 89.600 327.770,89.420 328.400,89.200 328.400 C 88.980 328.400,88.800 329.300,88.800 330.400 C 88.800 331.500,88.620 332.400,88.400 332.400 C 88.151 332.400,88.000 334.733,88.000 338.600 C 88.000 342.467,88.151 344.800,88.400 344.800 C 88.620 344.800,88.800 345.700,88.800 346.800 C 88.800 347.900,88.980 348.800,89.200 348.800 C 89.420 348.800,89.600 349.520,89.600 350.400 C 89.600 351.280,89.780 352.000,90.000 352.000 C 90.220 352.000,90.400 352.450,90.400 353.000 C 90.400 353.550,90.580 354.000,90.800 354.000 C 91.020 354.000,91.200 354.212,91.200 354.472 C 91.200 355.254,92.916 358.800,93.295 358.800 C 93.489 358.800,93.536 358.980,93.400 359.200 C 93.264 359.420,93.343 359.600,93.576 359.600 C 93.809 359.600,94.000 359.920,94.000 360.312 C 94.000 360.703,94.360 361.283,94.800 361.600 C 95.240 361.917,95.600 362.413,95.600 362.702 C 95.600 363.404,103.338 371.063,104.381 371.394 C 104.831 371.537,105.200 371.810,105.200 372.000 C 105.200 372.190,105.559 372.460,105.998 372.599 C 106.436 372.738,107.021 373.072,107.298 373.341 C 107.989 374.014,110.581 375.200,111.360 375.200 C 111.712 375.200,112.000 375.380,112.000 375.600 C 112.000 375.820,112.450 376.000,113.000 376.000 C 113.550 376.000,114.000 376.180,114.000 376.400 C 114.000 376.620,114.540 376.800,115.200 376.800 C 115.860 376.800,116.400 376.980,116.400 377.200 C 116.400 377.420,117.030 377.600,117.800 377.600 C 118.570 377.600,119.200 377.780,119.200 378.000 C 119.200 378.237,120.667 378.400,122.800 378.400 C 124.933 378.400,126.400 378.563,126.400 378.800 C 126.400 379.020,127.210 379.200,128.200 379.200 C 129.190 379.200,130.000 379.020,130.000 378.800 C 130.000 378.565,131.392 378.400,133.376 378.400 C 135.233 378.400,136.864 378.220,137.000 378.000 C 137.136 377.780,137.867 377.600,138.624 377.600 C 139.381 377.600,140.000 377.420,140.000 377.200 C 140.000 376.980,140.540 376.800,141.200 376.800 C 141.860 376.800,142.400 376.620,142.400 376.400 C 142.400 376.180,142.760 376.000,143.200 376.000 C 143.640 376.000,144.000 375.820,144.000 375.600 C 144.000 375.380,144.378 375.200,144.840 375.200 C 145.626 375.200,148.357 374.110,148.800 373.620 C 148.910 373.498,149.495 373.144,150.100 372.832 C 150.705 372.520,151.200 372.115,151.200 371.932 C 151.200 371.750,151.459 371.600,151.775 371.600 C 152.737 371.600,161.200 362.802,161.200 361.802 C 161.200 361.568,161.560 361.117,162.000 360.800 C 162.440 360.483,162.800 359.903,162.800 359.512 C 162.800 359.120,162.946 358.800,163.125 358.800 C 163.304 358.800,163.698 358.170,164.000 357.400 C 164.302 356.630,164.696 356.000,164.875 356.000 C 165.054 356.000,165.200 355.651,165.200 355.224 C 165.200 354.797,165.380 354.336,165.600 354.200 C 165.820 354.064,166.000 353.513,166.000 352.976 C 166.000 352.439,166.180 352.000,166.400 352.000 C 166.620 352.000,166.800 351.381,166.800 350.624 C 166.800 349.867,166.980 349.136,167.200 349.000 C 167.420 348.864,167.600 348.054,167.600 347.200 C 167.600 346.346,167.780 345.536,168.000 345.400 C 168.240 345.251,168.400 342.537,168.400 338.600 C 168.400 334.663,168.240 331.949,168.000 331.800 C 167.780 331.664,167.600 330.753,167.600 329.776 C 167.600 328.799,167.420 328.000,167.200 328.000 C 166.980 328.000,166.800 327.460,166.800 326.800 C 166.800 326.140,166.620 325.600,166.400 325.600 C 166.180 325.600,166.000 325.060,166.000 324.400 C 166.000 323.740,165.820 323.200,165.600 323.200 C 165.380 323.200,165.200 322.840,165.200 322.400 C 165.200 321.960,165.020 321.600,164.800 321.600 C 164.580 321.600,164.400 321.240,164.400 320.800 C 164.400 320.360,164.220 320.000,164.000 320.000 C 163.780 320.000,163.600 319.640,163.600 319.200 C 163.600 318.760,163.420 318.400,163.200 318.400 C 162.980 318.400,162.800 318.080,162.800 317.688 C 162.800 317.297,162.440 316.717,162.000 316.400 C 161.560 316.083,161.200 315.587,161.200 315.298 C 161.200 315.010,160.615 314.155,159.900 313.398 C 159.185 312.642,157.881 311.208,157.003 310.212 C 156.125 309.215,155.252 308.400,155.064 308.400 C 154.875 308.400,154.217 307.860,153.600 307.200 C 152.983 306.540,152.281 306.000,152.040 306.000 C 151.798 306.000,151.600 305.820,151.600 305.600 C 151.600 305.380,151.330 305.200,151.000 305.200 C 150.670 305.200,150.400 305.020,150.400 304.800 C 150.400 304.580,150.117 304.400,149.771 304.400 C 149.165 304.400,148.000 303.498,148.000 303.029 C 148.000 302.903,185.260 302.800,230.800 302.800 C 285.733 302.800,313.600 302.935,313.600 303.200 C 313.600 303.420,313.240 303.600,312.800 303.600 C 312.360 303.600,312.000 303.750,312.000 303.932 C 312.000 304.115,311.505 304.519,310.900 304.830 C 310.295 305.140,309.509 305.711,309.153 306.097 C 308.797 306.484,308.398 306.800,308.267 306.800 C 307.592 306.800,301.200 313.089,301.200 313.752 C 301.200 314.011,300.840 314.483,300.400 314.800 C 299.960 315.117,299.600 315.657,299.600 316.000 C 299.600 316.343,299.240 316.883,298.800 317.200 C 298.360 317.517,298.000 318.097,298.000 318.488 C 298.000 318.880,297.820 319.200,297.600 319.200 C 297.380 319.200,297.200 319.560,297.200 320.000 C 297.200 320.440,297.020 320.800,296.800 320.800 C 296.580 320.800,296.400 321.160,296.400 321.600 C 296.400 322.040,296.220 322.400,296.000 322.400 C 295.780 322.400,295.600 322.940,295.600 323.600 C 295.600 324.260,295.459 324.800,295.287 324.800 C 295.115 324.800,294.749 325.655,294.474 326.700 C 294.199 327.745,293.830 329.054,293.656 329.608 C 293.482 330.163,293.368 331.746,293.403 333.126 C 293.438 334.506,293.327 335.722,293.156 335.827 C 292.495 336.236,292.310 339.538,292.884 340.689 C 293.238 341.398,293.422 342.841,293.371 344.518 C 293.327 345.998,293.450 347.307,293.645 347.428 C 293.840 347.548,294.000 348.267,294.000 349.024 C 294.000 349.781,294.180 350.400,294.400 350.400 C 294.620 350.400,294.800 350.940,294.800 351.600 C 294.800 352.260,294.980 352.800,295.200 352.800 C 295.420 352.800,295.600 353.135,295.600 353.544 C 295.600 354.454,297.849 358.887,298.862 359.975 C 299.268 360.410,299.600 360.956,299.600 361.187 C 299.600 361.418,300.140 362.172,300.800 362.863 C 301.460 363.554,302.000 364.275,302.000 364.467 C 302.000 364.986,306.790 369.650,308.504 370.800 C 309.324 371.350,309.996 371.935,309.997 372.100 C 309.999 372.265,310.158 372.400,310.352 372.400 C 310.545 372.400,311.749 373.030,313.028 373.800 C 314.307 374.570,315.679 375.200,316.076 375.200 C 316.474 375.200,316.800 375.380,316.800 375.600 C 316.800 375.820,317.340 376.000,318.000 376.000 C 318.660 376.000,319.200 376.180,319.200 376.400 C 319.200 376.620,319.740 376.800,320.400 376.800 C 321.060 376.800,321.600 376.980,321.600 377.200 C 321.600 377.420,322.320 377.600,323.200 377.600 C 324.080 377.600,324.800 377.780,324.800 378.000 C 324.800 378.235,326.200 378.400,328.200 378.400 C 330.200 378.400,331.600 378.565,331.600 378.800 C 331.600 379.020,332.320 379.200,333.200 379.200 C 334.080 379.200,334.800 379.020,334.800 378.800 C 334.800 378.565,336.200 378.400,338.200 378.400 C 340.200 378.400,341.600 378.235,341.600 378.000 C 341.600 377.780,342.320 377.600,343.200 377.600 C 344.080 377.600,344.800 377.420,344.800 377.200 C 344.800 376.980,345.340 376.800,346.000 376.800 C 346.660 376.800,347.200 376.620,347.200 376.400 C 347.200 376.180,347.740 376.000,348.400 376.000 C 349.060 376.000,349.600 375.842,349.600 375.650 C 349.600 375.457,350.148 375.190,350.819 375.056 C 351.489 374.922,352.827 374.270,353.791 373.606 C 354.755 372.943,355.737 372.400,355.972 372.400 C 356.207 372.400,356.400 372.259,356.400 372.086 C 356.400 371.914,356.944 371.451,357.608 371.059 C 359.013 370.229,364.400 365.010,364.400 364.479 C 364.400 364.281,364.940 363.554,365.600 362.863 C 366.260 362.172,366.800 361.402,366.800 361.151 C 366.800 360.899,367.117 360.403,367.504 360.047 C 368.418 359.208,370.800 354.507,370.800 353.544 C 370.800 353.135,370.980 352.800,371.200 352.800 C 371.420 352.800,371.600 352.260,371.600 351.600 C 371.600 350.940,371.780 350.400,372.000 350.400 C 372.220 350.400,372.400 349.806,372.400 349.080 C 372.400 348.354,372.562 347.589,372.761 347.380 C 373.120 347.002,373.629 342.229,373.676 338.800 C 373.709 336.384,373.248 331.727,372.804 330.000 C 371.732 325.832,371.396 324.800,371.113 324.800 C 370.941 324.800,370.800 324.260,370.800 323.600 C 370.800 322.940,370.620 322.400,370.400 322.400 C 370.180 322.400,370.000 322.040,370.000 321.600 C 370.000 321.160,369.820 320.800,369.600 320.800 C 369.380 320.800,369.200 320.440,369.200 320.000 C 369.200 319.560,369.020 319.200,368.800 319.200 C 368.580 319.200,368.400 318.840,368.400 318.400 C 368.400 317.960,368.250 317.600,368.068 317.600 C 367.885 317.600,367.481 317.105,367.170 316.500 C 366.860 315.895,366.289 315.109,365.903 314.753 C 365.516 314.397,365.200 313.921,365.200 313.694 C 365.200 313.075,358.767 306.800,358.133 306.800 C 358.002 306.800,357.603 306.484,357.247 306.097 C 356.891 305.711,356.105 305.140,355.500 304.830 C 354.895 304.519,354.400 304.115,354.400 303.932 C 354.400 303.750,354.040 303.600,353.600 303.600 C 353.160 303.600,352.800 303.420,352.800 303.200 C 352.800 302.951,355.133 302.800,359.000 302.800 C 362.867 302.800,365.200 302.649,365.200 302.400 C 365.200 302.180,365.560 302.000,366.000 302.000 C 366.440 302.000,366.800 301.864,366.800 301.698 C 366.800 301.531,367.330 301.161,367.977 300.874 C 368.624 300.588,369.388 299.824,369.674 299.177 C 369.961 298.530,370.331 298.000,370.498 298.000 C 370.664 298.000,370.800 297.561,370.800 297.024 C 370.800 296.487,370.980 295.936,371.200 295.800 C 371.420 295.664,371.600 294.393,371.600 292.976 C 371.600 291.525,371.425 290.400,371.200 290.400 C 370.980 290.400,370.800 289.938,370.800 289.374 C 370.800 288.665,370.128 287.676,368.626 286.174 C 367.124 284.672,366.135 284.000,365.426 284.000 C 364.862 284.000,364.400 283.820,364.400 283.600 C 364.400 283.334,321.208 283.200,235.624 283.200 C 150.204 283.200,106.764 283.065,106.600 282.800 C 106.464 282.580,105.924 282.400,105.400 282.400 C 104.876 282.400,104.336 282.220,104.200 282.000 C 104.064 281.780,103.637 281.600,103.252 281.600 C 102.866 281.600,102.164 281.240,101.692 280.800 C 101.220 280.360,100.641 280.000,100.406 280.000 C 99.859 280.000,96.400 276.555,96.400 276.011 C 96.400 275.785,96.265 275.599,96.100 275.597 C 95.741 275.593,94.800 273.656,94.800 272.920 C 94.800 272.634,94.620 272.400,94.400 272.400 C 94.180 272.400,94.000 271.860,94.000 271.200 C 94.000 270.540,93.820 270.000,93.600 270.000 C 93.075 270.000,93.075 264.525,93.600 264.200 C 93.820 264.064,94.000 263.333,94.000 262.576 C 94.000 261.819,94.180 261.200,94.400 261.200 C 94.620 261.200,94.800 260.840,94.800 260.400 C 94.800 259.960,94.980 259.600,95.200 259.600 C 95.420 259.600,95.600 259.388,95.600 259.129 C 95.600 257.743,102.880 252.000,104.638 252.000 C 104.947 252.000,105.200 251.820,105.200 251.600 C 105.200 251.334,143.392 251.200,218.976 251.200 C 294.396 251.200,332.836 251.065,333.000 250.800 C 333.136 250.580,334.396 250.400,335.800 250.400 C 337.204 250.400,338.464 250.220,338.600 250.000 C 338.736 249.780,339.467 249.600,340.224 249.600 C 340.981 249.600,341.600 249.420,341.600 249.200 C 341.600 248.980,341.960 248.800,342.400 248.800 C 342.840 248.800,343.200 248.620,343.200 248.400 C 343.200 248.180,343.543 248.000,343.962 248.000 C 344.869 248.000,348.000 246.392,348.000 245.926 C 348.000 245.747,348.288 245.600,348.640 245.600 C 348.991 245.600,349.783 245.060,350.400 244.400 C 351.017 243.740,351.701 243.200,351.920 243.200 C 353.000 243.200,358.800 236.085,358.800 234.760 C 358.800 234.342,358.980 234.000,359.200 234.000 C 359.420 234.000,359.600 233.640,359.600 233.200 C 359.600 232.760,359.780 232.400,360.000 232.400 C 360.220 232.400,360.400 232.040,360.400 231.600 C 360.400 231.160,360.580 230.800,360.800 230.800 C 361.020 230.800,361.200 230.260,361.200 229.600 C 361.200 228.940,361.380 228.400,361.600 228.400 C 361.820 228.400,362.000 227.680,362.000 226.800 C 362.000 225.920,362.180 225.200,362.400 225.200 C 362.620 225.200,362.800 224.570,362.800 223.800 C 362.800 223.030,362.980 222.400,363.200 222.400 C 363.420 222.400,363.600 221.680,363.600 220.800 C 363.600 219.920,363.780 219.200,364.000 219.200 C 364.220 219.200,364.400 218.480,364.400 217.600 C 364.400 216.720,364.580 216.000,364.800 216.000 C 365.020 216.000,365.200 215.280,365.200 214.400 C 365.200 213.520,365.380 212.800,365.600 212.800 C 365.820 212.800,366.000 212.080,366.000 211.200 C 366.000 210.320,366.180 209.600,366.400 209.600 C 366.620 209.600,366.800 208.880,366.800 208.000 C 366.800 207.120,366.980 206.400,367.200 206.400 C 367.420 206.400,367.600 205.691,367.600 204.824 C 367.600 203.957,367.780 203.136,368.000 203.000 C 368.220 202.864,368.400 202.144,368.400 201.400 C 368.400 200.656,368.580 199.936,368.800 199.800 C 369.020 199.664,369.200 198.843,369.200 197.976 C 369.200 197.109,369.380 196.400,369.600 196.400 C 369.820 196.400,370.000 195.680,370.000 194.800 C 370.000 193.920,370.180 193.200,370.400 193.200 C 370.620 193.200,370.800 192.581,370.800 191.824 C 370.800 191.067,370.980 190.336,371.200 190.200 C 371.420 190.064,371.600 189.344,371.600 188.600 C 371.600 187.856,371.780 187.136,372.000 187.000 C 372.220 186.864,372.400 186.144,372.400 185.400 C 372.400 184.656,372.561 183.948,372.758 183.826 C 372.955 183.705,373.210 182.929,373.325 182.103 C 373.440 181.276,373.746 179.790,374.005 178.800 C 374.263 177.810,374.674 175.695,374.917 174.100 C 375.160 172.505,375.503 171.200,375.679 171.200 C 375.856 171.200,376.000 170.480,376.000 169.600 C 376.000 168.720,376.180 168.000,376.400 168.000 C 376.620 168.000,376.800 167.190,376.800 166.200 C 376.800 165.210,376.980 164.400,377.200 164.400 C 377.420 164.400,377.600 163.680,377.600 162.800 C 377.600 161.920,377.780 161.200,378.000 161.200 C 378.220 161.200,378.400 160.581,378.400 159.824 C 378.400 159.067,378.580 158.336,378.800 158.200 C 379.020 158.064,379.200 157.333,379.200 156.576 C 379.200 155.819,379.380 155.200,379.600 155.200 C 379.820 155.200,380.000 154.480,380.000 153.600 C 380.000 152.720,380.180 152.000,380.400 152.000 C 380.620 152.000,380.800 151.280,380.800 150.400 C 380.800 149.520,380.980 148.800,381.200 148.800 C 381.420 148.800,381.600 148.091,381.600 147.224 C 381.600 146.357,381.780 145.536,382.000 145.400 C 382.220 145.264,382.400 144.533,382.400 143.776 C 382.400 143.019,382.580 142.400,382.800 142.400 C 383.020 142.400,383.200 141.691,383.200 140.824 C 383.200 139.957,383.380 139.136,383.600 139.000 C 383.820 138.864,384.000 138.144,384.000 137.400 C 384.000 136.656,384.180 135.936,384.400 135.800 C 384.620 135.664,384.800 134.843,384.800 133.976 C 384.800 133.109,384.980 132.400,385.200 132.400 C 385.420 132.400,385.600 131.680,385.600 130.800 C 385.600 129.920,385.780 129.200,386.000 129.200 C 386.220 129.200,386.400 128.480,386.400 127.600 C 386.400 126.720,386.580 126.000,386.800 126.000 C 387.020 126.000,387.200 125.381,387.200 124.624 C 387.200 123.867,387.380 123.136,387.600 123.000 C 387.820 122.864,388.000 122.144,388.000 121.400 C 388.000 120.656,388.161 119.948,388.358 119.826 C 388.555 119.705,388.810 118.929,388.925 118.103 C 389.040 117.276,389.343 115.790,389.596 114.800 C 389.850 113.810,390.156 112.370,390.276 111.600 C 390.396 110.830,390.638 110.020,390.813 109.800 C 390.989 109.580,391.260 108.095,391.418 106.500 C 391.575 104.905,391.860 103.600,392.052 103.600 C 392.243 103.600,392.400 102.880,392.400 102.000 C 392.400 101.120,392.580 100.400,392.800 100.400 C 393.020 100.400,393.200 99.680,393.200 98.800 C 393.200 97.920,393.380 97.200,393.600 97.200 C 393.820 97.200,394.000 96.480,394.000 95.600 C 394.000 94.720,394.180 94.000,394.400 94.000 C 394.626 94.000,394.800 92.867,394.800 91.400 C 394.800 89.933,394.626 88.800,394.400 88.800 C 394.180 88.800,394.000 88.440,394.000 88.000 C 394.000 87.560,393.820 87.200,393.600 87.200 C 393.380 87.200,393.200 86.936,393.200 86.613 C 393.200 85.873,390.775 83.200,390.103 83.200 C 389.826 83.200,389.600 83.020,389.600 82.800 C 389.600 82.580,389.276 82.400,388.880 82.400 C 388.484 82.400,387.980 82.220,387.761 82.001 C 387.496 81.736,336.834 81.567,238.181 81.501 L 89.000 81.400 88.873 79.800 C 88.804 78.920,88.579 78.029,88.373 77.820 C 88.168 77.611,88.000 76.846,88.000 76.120 C 88.000 75.394,87.820 74.800,87.600 74.800 C 87.380 74.800,87.200 74.080,87.200 73.200 C 87.200 72.320,87.020 71.600,86.800 71.600 C 86.580 71.600,86.400 70.891,86.400 70.024 C 86.400 69.157,86.220 68.336,86.000 68.200 C 85.780 68.064,85.600 67.254,85.600 66.400 C 85.600 65.546,85.420 64.736,85.200 64.600 C 84.980 64.464,84.800 63.744,84.800 63.000 C 84.800 62.256,84.620 61.536,84.400 61.400 C 84.180 61.264,84.000 60.533,84.000 59.776 C 84.000 59.019,83.820 58.400,83.600 58.400 C 83.380 58.400,83.200 57.680,83.200 56.800 C 83.200 55.920,83.020 55.200,82.800 55.200 C 82.580 55.200,82.400 54.491,82.400 53.624 C 82.400 52.757,82.220 51.936,82.000 51.800 C 81.780 51.664,81.600 50.854,81.600 50.000 C 81.600 49.146,81.420 48.336,81.200 48.200 C 80.980 48.064,80.800 47.344,80.800 46.600 C 80.800 45.856,80.620 45.136,80.400 45.000 C 80.180 44.864,80.000 44.133,80.000 43.376 C 80.000 42.619,79.820 42.000,79.600 42.000 C 79.380 42.000,79.200 41.280,79.200 40.400 C 79.200 39.520,79.020 38.800,78.800 38.800 C 78.580 38.800,78.400 37.990,78.400 37.000 C 78.400 36.010,78.220 35.200,78.000 35.200 C 77.780 35.200,77.600 34.491,77.600 33.624 C 77.600 32.757,77.420 31.936,77.200 31.800 C 76.980 31.664,76.800 30.843,76.800 29.976 C 76.800 29.109,76.620 28.400,76.400 28.400 C 76.180 28.400,76.000 28.068,76.000 27.661 C 76.000 25.315,72.177 21.629,69.724 21.610 C 69.022 21.604,68.336 21.420,68.200 21.200 C 67.860 20.651,28.140 20.651,27.800 21.200 M133.200 318.800 C 133.200 319.020,133.740 319.200,134.400 319.200 C 135.060 319.200,135.600 319.380,135.600 319.600 C 135.600 319.820,135.960 320.000,136.400 320.000 C 136.840 320.000,137.200 320.180,137.200 320.400 C 137.200 320.620,137.560 320.800,138.000 320.800 C 138.440 320.800,138.800 320.968,138.800 321.173 C 138.800 321.378,139.166 321.662,139.614 321.804 C 140.635 322.129,144.800 326.357,144.800 327.071 C 144.800 327.362,144.947 327.600,145.126 327.600 C 145.592 327.600,147.200 330.731,147.200 331.638 C 147.200 332.057,147.380 332.400,147.600 332.400 C 147.820 332.400,148.000 333.019,148.000 333.776 C 148.000 334.533,148.180 335.264,148.400 335.400 C 148.620 335.536,148.800 337.077,148.800 338.824 C 148.800 340.675,148.633 342.000,148.400 342.000 C 148.180 342.000,148.000 342.542,148.000 343.205 C 148.000 343.868,147.838 344.723,147.640 345.105 C 147.443 345.487,146.858 346.655,146.341 347.700 C 145.824 348.745,145.288 349.600,145.149 349.600 C 145.011 349.600,144.673 350.140,144.400 350.800 C 144.127 351.460,143.734 352.000,143.528 352.000 C 143.322 352.000,143.264 352.180,143.400 352.400 C 143.536 352.620,143.379 352.800,143.051 352.800 C 142.722 352.800,142.340 353.160,142.200 353.600 C 142.060 354.040,141.715 354.400,141.432 354.400 C 141.150 354.400,140.354 354.940,139.663 355.600 C 138.972 356.260,138.136 356.800,137.804 356.800 C 137.472 356.800,137.200 356.980,137.200 357.200 C 137.200 357.420,136.761 357.600,136.224 357.600 C 135.687 357.600,135.136 357.780,135.000 358.000 C 134.864 358.220,134.223 358.400,133.576 358.400 C 132.929 358.400,132.400 358.535,132.400 358.700 C 132.400 358.865,130.420 359.000,128.000 359.000 C 125.580 359.000,123.600 358.865,123.600 358.700 C 123.600 358.535,123.060 358.400,122.400 358.400 C 121.740 358.400,121.200 358.220,121.200 358.000 C 121.200 357.780,120.750 357.600,120.200 357.600 C 119.650 357.600,119.200 357.420,119.200 357.200 C 119.200 356.980,118.930 356.800,118.600 356.800 C 118.270 356.800,118.000 356.620,118.000 356.400 C 118.000 356.180,117.730 356.000,117.400 356.000 C 117.070 356.000,116.800 355.850,116.800 355.668 C 116.800 355.485,116.306 355.080,115.703 354.768 C 114.278 354.031,112.000 351.775,112.000 351.102 C 112.000 350.813,111.640 350.317,111.200 350.000 C 110.760 349.683,110.400 349.103,110.400 348.712 C 110.400 348.320,110.220 348.000,110.000 348.000 C 109.780 348.000,109.600 347.640,109.600 347.200 C 109.600 346.760,109.445 346.400,109.255 346.400 C 108.387 346.400,107.487 337.635,108.085 335.000 C 108.184 334.560,108.402 333.435,108.568 332.500 C 108.734 331.565,109.034 330.800,109.235 330.800 C 109.436 330.800,109.600 330.440,109.600 330.000 C 109.600 329.560,109.780 329.200,110.000 329.200 C 110.220 329.200,110.400 328.880,110.400 328.488 C 110.400 328.097,110.760 327.517,111.200 327.200 C 111.640 326.883,112.000 326.303,112.000 325.912 C 112.000 325.520,112.174 325.200,112.387 325.200 C 112.599 325.200,113.366 324.615,114.090 323.900 C 114.814 323.185,115.900 322.345,116.503 322.032 C 117.106 321.720,117.600 321.315,117.600 321.132 C 117.600 320.950,117.960 320.800,118.400 320.800 C 118.840 320.800,119.200 320.620,119.200 320.400 C 119.200 320.180,119.560 320.000,120.000 320.000 C 120.440 320.000,120.800 319.820,120.800 319.600 C 120.800 319.380,121.239 319.200,121.776 319.200 C 122.313 319.200,122.864 319.020,123.000 318.800 C 123.143 318.568,125.337 318.400,128.224 318.400 C 131.275 318.400,133.200 318.555,133.200 318.800 M338.200 318.800 C 338.336 319.020,338.780 319.200,339.186 319.200 C 339.984 319.200,343.315 320.809,343.533 321.300 C 343.607 321.465,343.885 321.600,344.151 321.600 C 344.794 321.600,350.400 326.962,350.400 327.577 C 350.400 327.841,350.679 328.336,351.020 328.677 C 351.360 329.018,351.743 329.815,351.870 330.448 C 351.996 331.082,352.257 331.600,352.450 331.600 C 352.643 331.600,352.800 332.140,352.800 332.800 C 352.800 333.460,352.980 334.000,353.200 334.000 C 353.443 334.000,353.600 335.792,353.600 338.576 C 353.600 341.196,353.429 343.258,353.200 343.400 C 352.980 343.536,352.800 344.087,352.800 344.624 C 352.800 345.161,352.620 345.600,352.400 345.600 C 352.180 345.600,352.000 345.834,352.000 346.120 C 352.000 346.856,351.059 348.793,350.700 348.797 C 350.535 348.799,350.400 349.073,350.400 349.406 C 350.400 350.197,344.597 356.000,343.806 356.000 C 343.473 356.000,343.200 356.180,343.200 356.400 C 343.200 356.620,342.930 356.800,342.600 356.800 C 342.270 356.800,342.000 356.980,342.000 357.200 C 342.000 357.420,341.640 357.600,341.200 357.600 C 340.760 357.600,340.400 357.780,340.400 358.000 C 340.400 358.220,339.860 358.400,339.200 358.400 C 338.540 358.400,338.000 358.535,338.000 358.700 C 338.000 358.865,335.840 359.000,333.200 359.000 C 330.560 359.000,328.400 358.865,328.400 358.700 C 328.400 358.535,327.860 358.400,327.200 358.400 C 326.540 358.400,326.000 358.220,326.000 358.000 C 326.000 357.780,325.640 357.600,325.200 357.600 C 324.760 357.600,324.400 357.420,324.400 357.200 C 324.400 356.980,324.130 356.800,323.800 356.800 C 323.470 356.800,323.200 356.620,323.200 356.400 C 323.200 356.180,322.927 356.000,322.594 356.000 C 321.803 356.000,316.000 350.197,316.000 349.406 C 316.000 349.073,315.865 348.799,315.700 348.797 C 315.341 348.793,314.400 346.856,314.400 346.120 C 314.400 345.834,314.220 345.600,314.000 345.600 C 313.780 345.600,313.600 345.161,313.600 344.624 C 313.600 344.087,313.420 343.536,313.200 343.400 C 312.971 343.258,312.800 341.196,312.800 338.576 C 312.800 335.792,312.957 334.000,313.200 334.000 C 313.420 334.000,313.600 333.460,313.600 332.800 C 313.600 332.140,313.780 331.600,314.000 331.600 C 314.220 331.600,314.400 331.366,314.400 331.080 C 314.400 330.344,315.341 328.407,315.700 328.403 C 315.865 328.401,316.000 328.121,316.000 327.781 C 316.000 326.913,321.475 321.600,322.370 321.600 C 322.570 321.600,322.793 321.465,322.867 321.300 C 323.085 320.809,326.416 319.200,327.214 319.200 C 327.620 319.200,328.064 319.020,328.200 318.800 C 328.342 318.570,330.463 318.400,333.200 318.400 C 335.937 318.400,338.058 318.570,338.200 318.800 " stroke="none" fill="#3c7434" fill-rule="evenodd"></path><path id="path1" d="" stroke="none" fill="#407434" fill-rule="evenodd"></path><path id="path2" d="" stroke="none" fill="#407434" fill-rule="evenodd"></path><path id="path3" d="" stroke="none" fill="#407434" fill-rule="evenodd"></path><path id="path4" d="" stroke="none" fill="#407434" fill-rule="evenodd"></path></g></svg>